<svg width="457.97" height="500.00000000000006" xmlns="http://www.w3.org/2000/svg">
 <title>Web_design_SVG</title>

 <g>
  <title>Layer 1</title>
  <g id="Слой_2" data-name="Слой 2">
   <g id="Слой_1-2" data-name="Слой 1">
    <g id="monitor">
     <path class="cls-1" d="m310.52,385.65l-47.82,-27.65c-3.45,-2 -3,-5.47 1,-7.77l31,-17.89l60.3,34.87l-31,17.89c-4,2.29 -10,2.54 -13.48,0.55z" fill="#d6d8e5" opacity="0.4" id="svg_1"/>
     <path class="cls-2" d="m314.84,383.12l-47.84,-27.61c-3.44,-2 -3,-5.47 1,-7.77l31,-17.89l60.32,34.83l-31,17.89c-4.01,2.29 -10.03,2.54 -13.48,0.55z" fill="#b1b4c4" id="svg_2"/>
     <polygon class="cls-2" points="359.28 364.68 359.28 362.85 356.49 364.46 359.28 364.68" fill="#b1b4c4" id="svg_3"/>
     <polygon class="cls-2" points="264.69 352.22 264.69 350.36 267.55 351.55 264.69 352.22" fill="#b1b4c4" id="svg_4"/>
     <path class="cls-3" d="m314.84,381.3l-47.84,-27.62c-3.44,-2 -3,-5.46 1,-7.76l31,-17.92l60.32,34.82l-31,17.89c-4.01,2.29 -10.03,2.58 -13.48,0.59z" fill="#f5f9ff" id="svg_5"/>
     <polygon class="cls-4" points="299.13 328.11 291.66 303.35 352.63 338.32 359.28 362.85 299.13 328.11" fill="#9ea1af" id="svg_6"/>
     <path class="cls-4" d="m357.51,363.87l1.77,-1l-2.63,-2.1l0.86,3.1z" fill="#9ea1af" id="svg_7"/>
     <polygon class="cls-2" points="297.2 329.04 289.74 304.28 350.71 339.25 357.51 363.87 297.2 329.04" fill="#b1b4c4" id="svg_8"/>
     <path class="cls-2" d="m452,405.61l-236,-136.26c-3.31,-1.91 -6,-7 -6,-11.46l0,-182.56c0,-4.41 2.68,-6.44 6,-4.53l236,136.26c3.31,1.91 6,7 6,11.45l0,182.57c0,4.41 -2.71,6.44 -6,4.53z" fill="#b1b4c4" id="svg_9"/>
     <polygon class="cls-2" points="453.19 407.49 455.81 405.98 454.68 398.23 453.19 407.49" fill="#b1b4c4" id="svg_10"/>
     <path class="cls-2" d="m209.55,71.93l2.58,-1.49l3.7,2.11s-3.94,0.6 -4,0.58s-2.28,-1.2 -2.28,-1.2z" fill="#b1b4c4" id="svg_11"/>
     <path class="cls-5" d="m449.82,406.86l-236,-136.26c-3.31,-1.91 -6,-7 -6,-11.46l0,-182.56c0,-4.41 2.69,-6.44 6,-4.53l236,136.26c3.31,1.91 6,7 6,11.45l0,182.57c-0.01,4.41 -2.69,6.44 -6,4.53z" fill="#e4e7f2" id="svg_12"/>
     <path class="cls-3" d="m449.4,407.09l-236,-136.26c-3.31,-1.91 -6,-7 -6,-11.45l0,-182.56c0,-4.41 2.68,-6.44 6,-4.53l236,136.26c3.31,1.91 6,7 6,11.45l0,182.56c0,4.44 -2.69,6.44 -6,4.53z" fill="#d6d8e5" id="svg_13"/>
     <path class="cls-6" d="m452.15,396l-241.76,-139.58l0.13,-178.87c0,-1.83 1.29,-2.57 2.87,-1.66l236,136.26a6.35,6.35 0 0 1 2.87,5l-0.11,178.85z" fill="#fff" id="svg_14"/>
     <path class="cls-7" d="m437.18,240.5l-214.3,-123.72a5.85,5.85 0 0 1 -2.44,-4.66l0,-15.47c0,-1.79 1.09,-2.62 2.44,-1.84l214.3,123.72a5.85,5.85 0 0 1 2.44,4.67l0,15.46c0,1.8 -1.09,2.62 -2.44,1.84z" fill="#e9eaf2" id="svg_15"/>
     <path class="cls-7" d="m426,281.91l-50.37,-29.08a5.85,5.85 0 0 1 -2.44,-4.66l0,-32.51c0,-1.8 1.09,-2.62 2.44,-1.84l50.37,29.08a5.83,5.83 0 0 1 2.44,4.66l0,32.51c-0.04,1.79 -1.13,2.62 -2.44,1.84z" fill="#e9eaf2" id="svg_16"/>
     <path class="cls-7" d="m359.61,292.47l-126.36,-73a2.9,2.9 0 0 1 -1.22,-2.33l0,-5.59c0,-0.9 0.54,-1.32 1.22,-0.93l126.36,73a2.93,2.93 0 0 1 1.22,2.33l0,5.6c0,0.89 -0.55,1.31 -1.22,0.92z" fill="#e9eaf2" id="svg_17"/>
     <path class="cls-7" d="m347.17,298.53l-113.56,-65.53a2.94,2.94 0 0 1 -1.22,-2.33l0,-2.79c0,-0.9 0.55,-1.31 1.22,-0.92l113.56,65.56a2.93,2.93 0 0 1 1.22,2.33l0,2.78c0,0.87 -0.55,1.29 -1.22,0.9z" fill="#e9eaf2" id="svg_18"/>
     <path class="cls-7" d="m347.17,309.09l-113.56,-65.56a2.93,2.93 0 0 1 -1.22,-2.33l0,-2.79c0,-0.89 0.55,-1.31 1.22,-0.92l113.56,65.56a2.93,2.93 0 0 1 1.22,2.33l0,2.79c0,0.9 -0.55,1.31 -1.22,0.92z" fill="#e9eaf2" id="svg_19"/>
     <path class="cls-7" d="m318.14,302.89l-84.53,-48.8a2.93,2.93 0 0 1 -1.22,-2.33l0,-2.76c0,-0.9 0.55,-1.31 1.22,-0.93l84.53,48.8a3,3 0 0 1 1.22,2.34l0,2.79c0,0.87 -0.55,1.28 -1.22,0.89z" fill="#e9eaf2" id="svg_20"/>
     <path class="cls-7" d="m427.18,295.43l-52.81,-30.49a2.9,2.9 0 0 1 -1.22,-2.33l0,-2.79c0,-0.9 0.54,-1.31 1.22,-0.92l52.81,30.49a2.93,2.93 0 0 1 1.22,2.33l0,2.79c0,0.9 -0.55,1.31 -1.22,0.92z" fill="#e9eaf2" id="svg_21"/>
     <path class="cls-7" d="m427.18,306l-52.81,-30.5a2.9,2.9 0 0 1 -1.22,-2.33l0,-2.78c0,-0.9 0.54,-1.32 1.22,-0.93l52.81,30.54a2.91,2.91 0 0 1 1.22,2.33l0,2.78c0,0.89 -0.55,1.27 -1.22,0.89z" fill="#e9eaf2" id="svg_22"/>
     <path class="cls-7" d="m413.35,308.57l-39,-22.51a2.9,2.9 0 0 1 -1.22,-2.33l0,-2.73c0,-0.9 0.54,-1.31 1.22,-0.92l39,22.5a2.92,2.92 0 0 1 1.22,2.33l0,2.79c0,0.85 -0.57,1.3 -1.22,0.87z" fill="#e9eaf2" id="svg_23"/>
     <path class="cls-7" d="m426,363.31l-50.37,-29.08a5.85,5.85 0 0 1 -2.44,-4.66l0,-32.51c0,-1.79 1.09,-2.62 2.44,-1.84l50.37,29.08a5.85,5.85 0 0 1 2.4,4.7l0,32.51c0,1.75 -1.09,2.58 -2.4,1.8z" fill="#e9eaf2" id="svg_24"/>
     <path class="cls-7" d="m427.18,376.83l-52.81,-30.49a2.9,2.9 0 0 1 -1.22,-2.33l0,-2.78c0,-0.9 0.54,-1.32 1.22,-0.93l52.81,30.49a3,3 0 0 1 1.22,2.34l0,2.78c0,0.9 -0.55,1.31 -1.22,0.92z" fill="#e9eaf2" id="svg_25"/>
     <ellipse class="cls-8" cx="206.12" cy="239.85" rx="3.83" ry="6.64" fill="#dadce5" transform="rotate(-30 -24.14 129.87)" id="svg_26"/>
     <path class="cls-8" d="m341.68,176.35l-18.54,-10.7a1.47,1.47 0 0 1 -0.61,-1.17l0,-2.48c0,-0.45 0.27,-0.66 0.61,-0.46l18.54,10.7a1.43,1.43 0 0 1 0.61,1.16l0,2.46c0,0.48 -0.29,0.69 -0.61,0.49z" fill="#dadce5" id="svg_27"/>
     <path class="cls-8" d="m371.68,193.68l-18.54,-10.68a1.46,1.46 0 0 1 -0.61,-1.16l0,-2.46c0,-0.45 0.28,-0.66 0.61,-0.46l18.54,10.7a1.47,1.47 0 0 1 0.61,1.17l0,2.46c0,0.41 -0.29,0.62 -0.61,0.43z" fill="#dadce5" id="svg_28"/>
     <path class="cls-8" d="m401.2,210.72l-18.54,-10.72a1.43,1.43 0 0 1 -0.61,-1.16l0,-2.46c0,-0.45 0.27,-0.65 0.61,-0.46l18.54,10.7a1.47,1.47 0 0 1 0.61,1.17l0,2.46c0,0.46 -0.27,0.66 -0.61,0.47z" fill="#dadce5" id="svg_29"/>
     <path class="cls-8" d="m431.2,228l-18.53,-10.7a1.47,1.47 0 0 1 -0.61,-1.17l0,-2.46c0,-0.45 0.27,-0.65 0.61,-0.46l18.53,10.79a1.43,1.43 0 0 1 0.61,1.16l0,2.46c0,0.38 -0.27,0.62 -0.61,0.38z" fill="#dadce5" id="svg_30"/>
     <polygon class="cls-8" points="390.28 246.91 386.74 237.8 380.31 246.96 387.37 251.04 393.18 254.39 406.13 261.87 396.75 237.7 390.28 246.91" fill="#dadce5" id="svg_31"/>
     <ellipse class="cls-8" cx="416.37" cy="247.33" rx="3.45" ry="5.97" transform="matrix(0.87, -0.5, 0.5, 0.87, -67.88, 241.33)" fill="#dadce5" id="svg_32"/>
     <polygon class="cls-8" points="390.64 329.51 387.11 320.4 380.67 329.56 387.74 333.64 393.55 336.99 406.5 344.47 397.12 320.3 390.64 329.51" fill="#dadce5" id="svg_33"/>
     <ellipse class="cls-8" cx="307.61" cy="582.52" rx="3.45" ry="5.97" fill="#dadce5" transform="rotate(-30 -109.13 252.59)" id="svg_34"/>
    </g>
    <polygon class="cls-9" points="271.68 205.33 267 224.07 267 208.03 271.68 205.33" fill="#232733" id="svg_35"/>
    <polygon class="cls-9" points="217.17 173.56 212.49 192.31 212.49 176.27 217.17 173.56" fill="#232733" id="svg_36"/>
    <path class="cls-7" d="m294.14,289.83l-111.42,-64.33a5.23,5.23 0 0 1 -2.18,-4.18l0,-57c0,-1.61 1,-2.35 2.18,-1.65l111.42,64.33a5.21,5.21 0 0 1 2.19,4.17l0,57.05c0,1.57 -0.98,2.31 -2.19,1.61z" fill="#e9eaf2" id="svg_37"/>
    <polygon class="cls-10" points="213.73 223 207.69 207.43 196.69 223.08 208.77 230.06 218.69 235.79 240.84 248.58 224.8 207.25 213.73 223" fill="#ab9671" id="svg_38"/>
    <ellipse transform="rotate(-30 264.67 235.31)" class="cls-10" cx="264.67" cy="235.31" rx="5.89" ry="10.21" fill="#ab9671" id="svg_39"/>
    <polygon class="cls-11" points="264.95 201.44 264.94 180.06 258.88 175.51 258.88 201.44 252.14 205.33 261.91 210.97 271.68 205.33 264.95 201.44" fill="#353c4c" id="svg_40"/>
    <polygon class="cls-9" points="261.91 210.97 267 224.07 267 208.94 267 208.03 261.91 210.97" fill="#232733" id="svg_41"/>
    <polygon class="cls-12" points="252.14 205.33 256.47 217.91 267 224.07 261.91 210.97 252.14 205.33" fill="#2b303f" id="svg_42"/>
    <polygon class="cls-11" points="210.43 169.68 210.43 143.74 204.37 143.74 204.37 169.67 197.63 173.56 207.4 179.21 217.17 173.56 210.43 169.68" fill="#353c4c" id="svg_43"/>
    <polygon class="cls-9" points="207.4 179.21 212.49 192.31 212.49 177.18 212.49 176.27 207.4 179.21" fill="#232733" id="svg_44"/>
    <polygon class="cls-12" points="197.63 173.56 201.96 186.14 212.49 192.31 207.4 179.21 197.63 173.56" fill="#2b303f" id="svg_45"/>
    <polygon class="cls-1" points="143.77 290.74 83.41 255.72 10.68 297.71 75.75 335.45 148.49 293.46 148.49 288.02 143.77 290.74" fill="#d6d8e5" opacity="0.4" id="svg_46"/>
    <polygon class="cls-2" points="151.43 286.02 83.41 246.75 15.39 286.02 10.68 283.3 10.68 288.74 83.41 330.74 156.14 288.74 156.14 283.3 151.43 286.02" fill="#b1b4c4" id="svg_47"/>
    <polygon class="cls-13" points="83.41 325.29 10.68 283.3 83.41 241.31 156.14 283.3 83.41 325.29" fill="#e7e9f2" id="svg_48"/>
    <polygon class="cls-2" points="83.18 267.75 87.93 265.01 87.93 62.2 83.18 64.94 83.18 267.75" fill="#b1b4c4" id="svg_49"/>
    <polygon class="cls-2" points="83.56 147.69 116.77 200.25 121.52 198.31 87.93 145.23 83.56 147.69" fill="#b1b4c4" id="svg_50"/>
    <polygon class="cls-3" points="83.36 157.04 116.59 209.86 116.59 199.98 83.36 147.35 83.36 157.04" fill="#d6d8e5" id="svg_51"/>
    <polygon class="cls-3" points="78.61 265.01 83.36 267.75 83.36 64.94 78.61 62.2 78.61 265.01" fill="#d6d8e5" id="svg_52"/>
    <polygon class="cls-3" points="116.59 286.94 121.34 289.68 121.34 86.87 116.59 84.13 116.59 286.94" fill="#d6d8e5" id="svg_53"/>
    <polygon class="cls-2" points="121.16 289.68 125.91 286.94 125.91 84.13 121.16 86.87 121.16 289.68" fill="#b1b4c4" id="svg_54"/>
    <polygon class="cls-3" points="83.36 253.13 116.59 213.34 116.59 203.8 83.36 243.65 83.36 253.13" fill="#d6d8e5" id="svg_55"/>
    <polygon class="cls-2" points="83.36 253.13 87.93 250.63 116.59 216.08 116.59 212.6 83.36 253.13" fill="#b1b4c4" id="svg_56"/>
    <polygon class="cls-3" points="83.36 147.69 116.59 107.9 116.59 98.36 83.36 138.21 83.36 147.69" fill="#d6d8e5" id="svg_57"/>
    <polygon class="cls-2" points="83.36 147.69 87.93 145.18 116.59 110.64 116.59 107.16 83.36 147.69" fill="#b1b4c4" id="svg_58"/>
    <polygon class="cls-2" points="45.48 289.65 50.23 286.91 50.23 84.1 45.48 86.84 45.48 289.65" fill="#b1b4c4" id="svg_59"/>
    <polygon class="cls-2" points="45.86 169.59 79.07 222.14 83.82 220.21 50.23 167.13 45.86 169.59" fill="#b1b4c4" id="svg_60"/>
    <polygon class="cls-3" points="45.66 178.94 78.89 231.75 78.89 221.88 45.66 169.24 45.66 178.94" fill="#d6d8e5" id="svg_61"/>
    <polygon class="cls-3" points="40.92 286.91 45.66 289.65 45.66 86.84 40.92 84.1 40.92 286.91" fill="#d6d8e5" id="svg_62"/>
    <polygon class="cls-3" points="78.89 308.83 83.64 311.57 83.64 108.77 78.89 106.02 78.89 308.83" fill="#d6d8e5" id="svg_63"/>
    <polygon class="cls-2" points="83.46 311.57 88.21 308.83 88.21 106.02 83.46 108.77 83.46 311.57" fill="#b1b4c4" id="svg_64"/>
    <polygon class="cls-3" points="45.66 275.03 78.89 235.24 78.89 225.69 45.66 265.55 45.66 275.03" fill="#d6d8e5" id="svg_65"/>
    <polygon class="cls-2" points="45.66 275.03 50.23 272.52 78.89 237.98 78.89 234.49 45.66 275.03" fill="#b1b4c4" id="svg_66"/>
    <polygon class="cls-3" points="45.66 169.59 78.89 129.8 78.89 120.25 45.66 160.1 45.66 169.59" fill="#d6d8e5" id="svg_67"/>
    <polygon class="cls-2" points="45.66 169.59 50.23 167.08 78.89 132.53 78.89 129.05 45.66 169.59" fill="#b1b4c4" id="svg_68"/>
    <polygon class="cls-14" points="83.64 119.04 34.61 90.73 83.64 62.43 132.67 90.73 83.64 119.04" fill="#f7dc6b" id="svg_69"/>
    <polygon class="cls-11" points="79.99 37.91 21.86 71.47 5.22 61.86 63.35 28.3 79.99 37.91" fill="#353c4c" id="svg_70"/>
    <polygon class="cls-12" points="5.22 75.32 5.22 61.86 21.86 71.47 21.86 84.93 5.22 75.32" fill="#2b303f" id="svg_71"/>
    <polyline class="cls-9" points="21.86 84.93 79.99 51.37 79.99 37.91 21.86 71.47 21.86 83.62" fill="#232733" id="svg_72"/>
    <polygon class="cls-11" points="79.99 22.81 21.86 56.37 5.22 46.76 63.35 13.2 79.99 22.81" fill="#353c4c" id="svg_73"/>
    <polygon class="cls-12" points="5.22 60.23 5.22 46.76 21.86 56.37 21.86 69.84 5.22 60.23" fill="#2b303f" id="svg_74"/>
    <polyline class="cls-9" points="21.86 69.84 79.99 36.28 79.99 22.81 21.86 56.37 21.86 68.53" fill="#232733" id="svg_75"/>
    <polygon class="cls-3" points="36.05 64.55 0 43.87 0 36.33 36.05 56.88 36.05 64.55" fill="#d6d8e5" id="svg_76"/>
    <polygon class="cls-13" points="88.21 86.82 0 36.33 6.53 32.56 94.74 83.05 88.21 86.82" fill="#e7e9f2" id="svg_77"/>
    <polygon class="cls-3" points="75.71 52.63 30.42 26.43 30.42 18.88 75.71 43.15 75.71 52.63" fill="#d6d8e5" id="svg_78"/>
    <polygon class="cls-13" points="110.06 64.09 30.42 18.89 36.95 15.12 116.59 60.32 110.06 64.09" fill="#e7e9f2" id="svg_79"/>
    <polygon class="cls-3" points="54.55 32.8 54.55 40.34 57.65 62.05 62.25 64.91 54.55 32.8" fill="#d6d8e5" id="svg_80"/>
    <polygon class="cls-13" points="68.18 68.13 62.22 37.23 54.55 32.8 59.2 63.25 68.18 68.13" fill="#e7e9f2" id="svg_81"/>
    <polygon class="cls-2" points="54.55 40.34 30.76 46.61 18.54 39.55 53.51 32.18 54.55 32.8 54.55 40.34" fill="#b1b4c4" id="svg_82"/>
    <polygon class="cls-13" points="54.55 32.8 21.42 41.22 14.3 37.11 47.69 28.58 54.55 32.8" fill="#e7e9f2" id="svg_83"/>
    <polygon class="cls-13" points="83.64 56.62 34.61 28.31 83.64 0 132.67 28.31 83.64 56.62" fill="#e7e9f2" id="svg_84"/>
    <polygon class="cls-3" points="34.61 115.73 34.61 28.31 83.64 56.62 83.64 144.04 34.61 115.73" fill="#d6d8e5" id="svg_85"/>
    <polygon class="cls-2" points="132.67 28.31 132.67 115.73 83.64 144.04 83.64 56.61 132.67 28.31" fill="#b1b4c4" id="svg_86"/>
    <polygon class="cls-10" points="83.64 87.07 55.49 70.82 46.44 42.02 83.64 63.5 83.64 87.07" fill="#ab9671" id="svg_87"/>
    <polygon class="cls-15" points="132.67 35.19 132.67 58.76 83.64 87.08 83.64 63.51 132.67 35.19" fill="#ab9671" id="svg_88"/>
    <polygon class="cls-3" points="302.27 219.27 90.12 96.78 90.12 89.24 302.27 211.73 302.27 219.27" fill="#d6d8e5" id="svg_89"/>
    <polygon class="cls-13" points="302.27 211.73 90.12 89.25 96.65 85.48 308.8 207.96 302.27 211.73" fill="#e7e9f2" id="svg_90"/>
    <polygon class="cls-3" points="332.69 201.83 120.54 79.34 120.54 71.8 332.69 194.29 332.69 201.83" fill="#d6d8e5" id="svg_91"/>
    <polygon class="cls-13" points="332.69 194.29 120.54 71.8 127.07 68.03 339.22 190.52 332.69 194.29" fill="#e7e9f2" id="svg_92"/>
    <polygon class="cls-2" points="339.22 198.08 302.27 219.27 302.27 211.72 339.22 190.54 339.22 198.08" fill="#b1b4c4" id="svg_93"/>
    <polygon class="cls-13" points="339.22 190.54 302.29 211.73 296.76 208.54 333.69 187.35 339.22 190.54" fill="#e7e9f2" id="svg_94"/>
    <polygon class="cls-2" points="306.1 186.46 282.3 192.73 270.08 185.67 305.05 178.3 306.1 178.92 306.1 186.46" fill="#b1b4c4" id="svg_95"/>
    <polygon class="cls-13" points="306.1 178.92 272.97 187.34 265.85 183.22 299.23 174.7 306.1 178.92" fill="#e7e9f2" id="svg_96"/>
    <polygon class="cls-3" points="252.41 147.96 252.41 155.5 255.51 177.21 260.11 180.06 252.41 147.96" fill="#d6d8e5" id="svg_97"/>
    <polygon class="cls-13" points="266.04 183.29 260.08 152.39 252.41 147.96 257.07 178.41 266.04 183.29" fill="#e7e9f2" id="svg_98"/>
    <polygon class="cls-2" points="252.41 155.5 228.62 161.77 216.4 154.71 251.37 147.34 252.41 147.96 252.41 155.5" fill="#b1b4c4" id="svg_99"/>
    <polygon class="cls-13" points="252.41 147.96 219.29 156.38 212.17 152.27 245.55 143.74 252.41 147.96" fill="#e7e9f2" id="svg_100"/>
    <polygon class="cls-3" points="198.54 116.83 198.54 124.37 201.63 146.08 206.24 148.94 198.54 116.83" fill="#d6d8e5" id="svg_101"/>
    <polygon class="cls-13" points="212.17 152.16 206.21 121.26 198.54 116.83 203.19 147.28 212.17 152.16" fill="#e7e9f2" id="svg_102"/>
    <polygon class="cls-2" points="198.54 124.37 174.75 130.64 162.53 123.58 197.5 116.21 198.54 116.83 198.54 124.37" fill="#b1b4c4" id="svg_103"/>
    <polygon class="cls-13" points="198.54 116.83 165.41 125.25 158.29 121.14 191.68 112.61 198.54 116.83" fill="#e7e9f2" id="svg_104"/>
    <polygon class="cls-3" points="144.67 85.72 144.67 93.26 147.76 114.97 152.37 117.82 144.67 85.72" fill="#d6d8e5" id="svg_105"/>
    <polygon class="cls-13" points="158.29 121.05 152.34 90.15 144.67 85.72 149.32 116.17 158.29 121.05" fill="#e7e9f2" id="svg_106"/>
    <polygon class="cls-2" points="144.67 93.26 120.88 99.53 108.66 92.47 143.63 85.1 144.67 85.72 144.67 93.26" fill="#b1b4c4" id="svg_107"/>
    <polygon class="cls-13" points="144.67 85.72 111.54 94.14 104.42 90.03 137.8 81.5 144.67 85.72" fill="#e7e9f2" id="svg_108"/>
    <polygon class="cls-1" points="94.17 500 66.35 484.08 107.99 460.25 135.81 476.16 94.17 500" fill="#d6d8e5" opacity="0.4" id="svg_109"/>
    <polygon class="cls-3" points="94.75 467.91 71.71 454.6 94.75 441.3 117.79 454.61 94.75 467.91" fill="#d6d8e5" id="svg_110"/>
    <polygon class="cls-16" points="94.75 494.52 71.71 481.21 71.71 454.6 94.75 467.91 94.75 494.52" fill="#b1b6c4" id="svg_111"/>
    <polygon class="cls-17" points="117.79 481.21 94.75 494.52 94.75 467.91 117.79 454.6 117.79 481.21" fill="#c4c7d6" id="svg_112"/>
    <g id="Men_5">
     <path class="cls-18" d="m125.72,472.84a7.83,7.83 0 0 0 5.93,-0.72c1.43,0 9.19,-3.28 10.25,-0.49c0.92,2.45 -2.44,4.71 -4.24,5.14c-3.92,1 -6.82,2.91 -8.39,3.24c-1.17,0.25 -2.69,0.41 -3.63,-0.51c-1.12,-1.11 -1.02,-5.2 0.08,-6.66z" fill="#414656" id="svg_113"/>
     <path class="cls-19" d="m129.27,479.33c1.57,-0.33 4.47,-2.28 8.39,-3.23c1.51,-0.37 4.1,-2 4.36,-4c0.35,2.25 -2.68,4.25 -4.36,4.65c-3.92,1 -6.82,2.91 -8.39,3.24c-1.17,0.25 -2.69,0.41 -3.63,-0.51a2.45,2.45 0 0 1 -0.51,-0.94a4.69,4.69 0 0 0 4.14,0.79z" fill="#ab9671" id="svg_114"/>
     <path class="cls-18" d="m111.72,465.39a7.85,7.85 0 0 0 5.94,-0.72c1.43,0 9.19,-3.28 10.24,-0.49c0.93,2.45 -2.43,4.71 -4.23,5.14c-3.92,0.95 -6.82,2.91 -8.4,3.24c-1.17,0.25 -2.69,0.41 -3.62,-0.51c-1.12,-1.11 -1.03,-5.2 0.07,-6.66z" fill="#414656" id="svg_115"/>
     <path class="cls-19" d="m115.27,471.88c1.58,-0.33 4.48,-2.28 8.4,-3.23c1.5,-0.37 4.1,-2 4.36,-4c0.35,2.25 -2.69,4.25 -4.36,4.65c-3.92,0.95 -6.82,2.91 -8.4,3.24c-1.17,0.25 -2.69,0.41 -3.62,-0.51a2.34,2.34 0 0 1 -0.52,-0.94a4.7,4.7 0 0 0 4.14,0.79z" fill="#ab9671" id="svg_116"/>
     <path class="cls-10" d="m89.93,455.73c6,2.66 11.76,3.08 16.43,0.57l4.82,-2.78c0.29,6.22 0.56,12.2 0.56,12.2s3.7,2.8 6.58,0.3c0,0 0.6,-8.73 1.21,-17.32l5.06,-2.92a6,6 0 0 0 -0.2,1.4c0,1.64 1.17,25.9 1.17,25.9s3.73,2.22 6.61,-0.28c0,0 1.94,-28.12 2.38,-32.61c0.5,-5.05 -5.11,-7.54 -8.65,-6.24c-0.83,0.29 -2.86,1.05 -5.43,2c0.11,-1.41 0.2,-2.5 0.26,-3.12c0.51,-5.06 -5.1,-7.55 -8.65,-6.25c-3.24,1.18 -25.08,9.42 -25.08,9.42a54.55,54.55 0 0 0 0.77,6.25l-8.62,-0.72c-0.52,8.07 4.74,11.54 10.78,14.2zm15.07,-14l5.77,-3.33a6.71,6.71 0 0 0 -0.19,1.24l-5.58,2.09z" fill="#ab9671" id="svg_117"/>
     <path class="cls-20" d="m74.42,416.87s0.71,10.73 2.12,12.28s6.17,2.6 6.17,2.6l3.66,6s-3.37,-19.15 -4.07,-19.61s-7.88,-1.27 -7.88,-1.27z" fill="#ffcea9" id="svg_118"/>
     <path id="_Контур_" data-name="&lt;Контур&gt;" class="cls-21" d="m81.47,405a4,4 0 0 0 -5.1,1.54c-1.35,2.24 -2.75,9.9 -2.88,11.21c0,0 1.89,2.62 4.73,2.18l3.25,-14.93z" fill="#ededed"/>
     <path id="_Контур_2" data-name="&lt;Контур&gt;" class="cls-20" d="m82.76,405.09c1.86,0.09 3.24,0.57 3.47,0a23.86,23.86 0 0 0 0.42,-2.89c-0.21,-0.54 -0.4,-1.12 -0.4,-1.12c-2.32,-1.43 -3.06,-4 -3.37,-6.88c-0.52,-5 2.19,-9.4 7.2,-9.92c4.71,-0.49 8.17,2.82 9.1,7.36c0.49,2.25 1.49,6.49 0.15,10.18c-0.75,2.06 -1.72,3.7 -2.68,4a23.25,23.25 0 0 1 -2.79,-0.25l0,0s-0.25,1.39 -0.42,2.28s-0.1,1.37 1.67,2.46s-2.69,3.35 -5.6,3.13s-6.2,-2 -7.11,-3.87c-1,-2.06 -0.91,-4.57 0.36,-4.48z" fill="#ffcea9"/>
     <g id="_Группа_" data-name="&lt;Группа&gt;">
      <g id="_Группа_2" data-name="&lt;Группа&gt;">
       <g id="_Группа_3" data-name="&lt;Группа&gt;">
        <path id="_Контур_3" data-name="&lt;Контур&gt;" class="cls-22" d="m129.74,437.91l0,0a1.5,1.5 0 0 1 -0.75,1.31l-14.13,8.16a1.51,1.51 0 0 1 -1.51,0l-19.82,-11.44a1.5,1.5 0 0 1 -0.75,-1.3l0,-0.12l36.96,3.39z" fill="#e5e5e5"/>
        <path id="_Контур_4" data-name="&lt;Контур&gt;" class="cls-22" d="m129,439.22l-14.13,8.16a1.49,1.49 0 0 1 -0.76,0.2l0,-9.67l15.64,0a1.5,1.5 0 0 1 -0.75,1.31z" fill="#e5e5e5"/>
        <g id="_Группа_4" data-name="&lt;Группа&gt;">
         <path id="_Контур_5" data-name="&lt;Контур&gt;" class="cls-23" d="m114.63,446.64a1.06,1.06 0 0 1 -1.06,0l-20.57,-11.89c-0.27,-0.15 -0.27,-0.4 0,-0.55l15.16,-8.76l21.6,12.47l-15.13,8.73z" fill="#f4f4f4"/>
        </g>
        <g id="_Группа_5" data-name="&lt;Группа&gt;">
         <polygon id="_Контур_6" data-name="&lt;Контур&gt;" class="cls-24" points="101.44 437.91 101.54 437.97 108.14 441.78 111.76 439.69 111.87 439.63 105.16 435.76 101.44 437.91" fill="#bfbfbf"/>
         <polygon id="_Контур_7" data-name="&lt;Контур&gt;" class="cls-22" points="101.54 437.97 108.14 441.78 111.76 439.69 105.16 435.88 101.54 437.97" fill="#e5e5e5"/>
        </g>
        <path class="cls-25" d="m124.14,438.53l1,0.55a0.35,0.35 0 0 0 0.3,0l0.91,-0.53c0.09,-0.05 0.1,-0.13 0,-0.17l-1,-0.55a0.32,0.32 0 0 0 -0.3,0l-0.91,0.52c-0.06,0.06 -0.07,0.13 0,0.18z" fill="#3a2c6d" id="svg_119"/>
        <path class="cls-25" d="m122.8,437.75l1,0.55a0.32,0.32 0 0 0 0.3,0l0.91,-0.53c0.09,-0.05 0.1,-0.13 0,-0.17l-1,-0.55a0.32,0.32 0 0 0 -0.3,0l-0.91,0.53c-0.07,0.05 -0.08,0.13 0,0.17z" fill="#3a2c6d" id="svg_120"/>
        <path class="cls-25" d="m121.45,437l1,0.55a0.32,0.32 0 0 0 0.3,0l0.91,-0.52c0.09,-0.06 0.1,-0.13 0,-0.18l-0.95,-0.55a0.35,0.35 0 0 0 -0.3,0l-0.91,0.53c-0.12,0.02 -0.13,0.1 -0.05,0.17z" fill="#3a2c6d" id="svg_121"/>
        <path class="cls-25" d="m120.1,436.2l1,0.55a0.38,0.38 0 0 0 0.31,0l0.91,-0.52c0.09,0 0.1,-0.13 0,-0.18l-1,-0.55a0.34,0.34 0 0 0 -0.31,0l-0.91,0.52c-0.1,0.05 -0.1,0.13 0,0.18z" fill="#3a2c6d" id="svg_122"/>
        <path class="cls-25" d="m118.75,435.42l1,0.55a0.32,0.32 0 0 0 0.3,0l0.91,-0.52c0.09,-0.05 0.1,-0.13 0,-0.17l-1,-0.55a0.34,0.34 0 0 0 -0.31,0l-0.9,0.52c-0.06,0.04 -0.07,0.12 0,0.17z" fill="#3a2c6d" id="svg_123"/>
        <path class="cls-25" d="m117.41,434.64l1,0.55a0.35,0.35 0 0 0 0.3,0l0.91,-0.53c0.09,0 0.1,-0.13 0,-0.17l-1,-0.55a0.32,0.32 0 0 0 -0.3,0l-0.91,0.52c-0.07,0.06 -0.08,0.13 0,0.18z" fill="#3a2c6d" id="svg_124"/>
        <path class="cls-25" d="m116.06,433.86l1,0.55a0.32,0.32 0 0 0 0.3,0l0.91,-0.53c0.09,-0.05 0.1,-0.13 0,-0.17l-0.95,-0.55a0.32,0.32 0 0 0 -0.3,0l-0.91,0.53c-0.11,0.05 -0.11,0.13 -0.05,0.17z" fill="#3a2c6d" id="svg_125"/>
        <path class="cls-25" d="m114.71,433.08l1,0.55a0.34,0.34 0 0 0 0.31,0l0.91,-0.52c0.09,-0.06 0.09,-0.13 0,-0.18l-1,-0.55a0.37,0.37 0 0 0 -0.31,0l-0.91,0.53c-0.07,0.09 -0.08,0.09 0,0.17z" fill="#3a2c6d" id="svg_126"/>
        <path class="cls-25" d="m113.36,432.31l1,0.55a0.36,0.36 0 0 0 0.3,0l0.91,-0.52c0.09,-0.05 0.1,-0.13 0,-0.18l-1,-0.55a0.34,0.34 0 0 0 -0.31,0l-0.9,0.52c-0.06,0.05 -0.07,0.13 0,0.18z" fill="#3a2c6d" id="svg_127"/>
        <path class="cls-25" d="m112,431.53l1,0.55a0.32,0.32 0 0 0 0.3,0l0.91,-0.52c0.09,-0.05 0.1,-0.13 0,-0.17l-1,-0.55a0.32,0.32 0 0 0 -0.3,0l-0.91,0.52c0,0.04 -0.06,0.12 0,0.17z" fill="#3a2c6d" id="svg_128"/>
        <path class="cls-25" d="m110.67,430.75l1,0.55a0.35,0.35 0 0 0 0.3,0l0.91,-0.53c0.09,-0.05 0.1,-0.13 0,-0.17l-0.95,-0.55a0.32,0.32 0 0 0 -0.3,0l-0.91,0.52c-0.12,0.06 -0.13,0.13 -0.05,0.18z" fill="#3a2c6d" id="svg_129"/>
        <path class="cls-25" d="m109.32,430l1,0.55a0.34,0.34 0 0 0 0.31,0l0.91,-0.53c0.09,-0.05 0.09,-0.13 0,-0.17l-1,-0.55a0.34,0.34 0 0 0 -0.31,0l-0.91,0.53c-0.07,0.02 -0.08,0.1 0,0.17z" fill="#3a2c6d" id="svg_130"/>
        <path class="cls-25" d="m108,429.19l1,0.55a0.32,0.32 0 0 0 0.3,0l0.91,-0.52c0.09,-0.06 0.1,-0.13 0,-0.18l-1,-0.55a0.37,0.37 0 0 0 -0.31,0l-0.9,0.53c-0.09,0.05 -0.1,0.13 0,0.17z" fill="#3a2c6d" id="svg_131"/>
        <path class="cls-25" d="m106,428l1.6,0.93a0.35,0.35 0 0 0 0.3,0l0.91,-0.52c0.09,-0.05 0.1,-0.13 0,-0.18l-1.6,-0.92a0.32,0.32 0 0 0 -0.3,0l-0.91,0.53c-0.09,0.08 -0.1,0.16 0,0.16z" fill="#3a2c6d" id="svg_132"/>
        <path class="cls-25" d="m120.84,438.13l1,0.55a0.35,0.35 0 0 0 0.3,0l0.91,-0.53c0.09,-0.05 0.1,-0.13 0,-0.17l-1,-0.55a0.32,0.32 0 0 0 -0.3,0l-0.91,0.52c-0.07,0.05 -0.08,0.13 0,0.18z" fill="#3a2c6d" id="svg_133"/>
        <path class="cls-25" d="m119.49,437.35l1,0.55a0.37,0.37 0 0 0 0.31,0l0.9,-0.53c0.09,-0.05 0.1,-0.13 0,-0.17l-1,-0.55a0.32,0.32 0 0 0 -0.3,0l-0.91,0.53c-0.07,0.05 -0.08,0.13 0,0.17z" fill="#3a2c6d" id="svg_134"/>
        <path class="cls-25" d="m118.14,436.57l1,0.55a0.34,0.34 0 0 0 0.31,0l0.9,-0.53c0.09,-0.05 0.1,-0.13 0,-0.17l-1,-0.55a0.32,0.32 0 0 0 -0.3,0l-0.91,0.53c-0.07,0.05 -0.08,0.13 0,0.17z" fill="#3a2c6d" id="svg_135"/>
        <path class="cls-25" d="m116.79,435.79l0.95,0.55a0.34,0.34 0 0 0 0.31,0l0.9,-0.53c0.09,-0.05 0.1,-0.13 0,-0.17l-1,-0.55a0.32,0.32 0 0 0 -0.3,0l-0.91,0.53c-0.02,0.05 -0.03,0.13 0.05,0.17z" fill="#3a2c6d" id="svg_136"/>
        <path class="cls-25" d="m115.45,435l1,0.55a0.37,0.37 0 0 0 0.31,0l0.9,-0.53c0.09,0 0.1,-0.13 0,-0.17l-1,-0.55a0.32,0.32 0 0 0 -0.3,0l-0.91,0.52c-0.07,0.08 -0.08,0.18 0,0.18z" fill="#3a2c6d" id="svg_137"/>
        <path class="cls-25" d="m114.1,434.24l1,0.55a0.37,0.37 0 0 0 0.31,0l0.9,-0.53c0.09,-0.05 0.1,-0.13 0,-0.17l-1,-0.55a0.32,0.32 0 0 0 -0.3,0l-0.91,0.52c-0.1,0.06 -0.1,0.13 0,0.18z" fill="#3a2c6d" id="svg_138"/>
        <path class="cls-25" d="m112.75,433.46l1,0.55a0.37,0.37 0 0 0 0.31,0l0.9,-0.53c0.09,-0.05 0.1,-0.13 0,-0.17l-1,-0.55a0.32,0.32 0 0 0 -0.3,0l-0.91,0.52c-0.07,0.06 -0.08,0.13 0,0.18z" fill="#3a2c6d" id="svg_139"/>
        <path class="cls-25" d="m111.4,432.68l0.95,0.55a0.37,0.37 0 0 0 0.31,0l0.91,-0.53c0.08,-0.05 0.09,-0.13 0,-0.17l-1,-0.55a0.32,0.32 0 0 0 -0.3,0l-0.91,0.53c-0.03,0.05 -0.04,0.13 0.04,0.17z" fill="#3a2c6d" id="svg_140"/>
        <path class="cls-25" d="m110.05,431.9l1,0.55a0.34,0.34 0 0 0 0.31,0l0.91,-0.53c0.08,-0.05 0.09,-0.13 0,-0.17l-0.95,-0.55a0.34,0.34 0 0 0 -0.31,0l-0.91,0.53c-0.1,0.05 -0.1,0.13 -0.05,0.17z" fill="#3a2c6d" id="svg_141"/>
        <path class="cls-25" d="m108.7,431.12l1,0.55a0.34,0.34 0 0 0 0.31,0l0.91,-0.53c0.09,-0.05 0.09,-0.13 0,-0.17l-1,-0.55a0.37,0.37 0 0 0 -0.31,0l-0.91,0.53c-0.07,0.05 -0.08,0.13 0,0.17z" fill="#3a2c6d" id="svg_142"/>
        <path class="cls-25" d="m107.35,430.34l1,0.55a0.34,0.34 0 0 0 0.31,0l0.91,-0.52c0.09,-0.06 0.09,-0.14 0,-0.18l-1,-0.55a0.37,0.37 0 0 0 -0.31,0l-0.91,0.53c-0.07,0.05 -0.08,0.13 0,0.17z" fill="#3a2c6d" id="svg_143"/>
        <path class="cls-25" d="m106,429.56l1,0.55a0.34,0.34 0 0 0 0.31,0l0.91,-0.52c0.09,-0.06 0.1,-0.13 0,-0.18l-1,-0.55a0.37,0.37 0 0 0 -0.31,0l-0.91,0.53c-0.07,0.05 -0.08,0.13 0,0.17z" fill="#3a2c6d" id="svg_144"/>
        <path class="cls-25" d="m122.19,438.91l1.6,0.92a0.32,0.32 0 0 0 0.3,0l0.91,-0.52c0.09,-0.06 0.1,-0.13 0,-0.18l-1.6,-0.92a0.32,0.32 0 0 0 -0.3,0l-0.91,0.52c-0.07,0.06 -0.08,0.13 0,0.18z" fill="#3a2c6d" id="svg_145"/>
        <path class="cls-25" d="m105.89,428.08l1,0.55a0.08,0.08 0 0 1 0,0.16l-1,0.56a0.34,0.34 0 0 1 -0.28,0l-0.08,-0.05a0.3,0.3 0 0 0 -0.26,0l-1,0.59a0.34,0.34 0 0 1 -0.28,0l-0.61,-0.35c-0.08,-0.05 -0.08,-0.12 0,-0.16l1,-0.55l0.2,-0.11l0.14,-0.09l0.14,-0.08l0.82,-0.47a0.28,0.28 0 0 1 0.21,0z" fill="#3a2c6d" id="svg_146"/>
        <path class="cls-25" d="m118.92,441.54l1,0.55a0.32,0.32 0 0 0 0.3,0l0.91,-0.52c0.09,-0.06 0.1,-0.13 0,-0.18l-0.95,-0.55a0.35,0.35 0 0 0 -0.3,0l-0.91,0.53c-0.12,0.05 -0.13,0.13 -0.05,0.17z" fill="#3a2c6d" id="svg_147"/>
        <path class="cls-25" d="m117.57,440.77l1,0.55a0.34,0.34 0 0 0 0.31,0l0.9,-0.52c0.09,0 0.1,-0.13 0,-0.18l-1,-0.54a0.32,0.32 0 0 0 -0.3,0l-0.91,0.52c-0.07,0.04 -0.08,0.12 0,0.17z" fill="#3a2c6d" id="svg_148"/>
        <path class="cls-25" d="m116.23,440l1,0.55a0.32,0.32 0 0 0 0.3,0l0.91,-0.53c0.09,-0.05 0.1,-0.13 0,-0.17l-1,-0.55a0.32,0.32 0 0 0 -0.3,0l-0.91,0.53c-0.07,0.04 -0.08,0.17 0,0.17z" fill="#3a2c6d" id="svg_149"/>
        <path class="cls-25" d="m104.78,433.38l1,0.55a0.32,0.32 0 0 0 0.3,0l0.91,-0.52c0.09,0 0.1,-0.13 0,-0.18l-1,-0.55a0.34,0.34 0 0 0 -0.31,0l-0.9,0.52c-0.06,0.06 -0.07,0.14 0,0.18z" fill="#3a2c6d" id="svg_150"/>
        <path class="cls-25" d="m103.44,432.61l1,0.55a0.37,0.37 0 0 0 0.31,0l0.9,-0.53c0.09,-0.05 0.1,-0.13 0,-0.17l-1,-0.55a0.32,0.32 0 0 0 -0.3,0l-0.91,0.52c-0.07,0.06 -0.08,0.13 0,0.18z" fill="#3a2c6d" id="svg_151"/>
        <path class="cls-25" d="m102.1,431.83l1,0.55a0.32,0.32 0 0 0 0.3,0l0.91,-0.52c0.09,-0.06 0.1,-0.13 0,-0.18l-1,-0.55a0.35,0.35 0 0 0 -0.3,0l-0.91,0.53c-0.1,0.05 -0.1,0.13 0,0.17z" fill="#3a2c6d" id="svg_152"/>
        <path class="cls-25" d="m100.75,431.06l1,0.55a0.32,0.32 0 0 0 0.3,0l0.91,-0.52c0.09,-0.05 0.1,-0.13 0,-0.18l-1,-0.54a0.34,0.34 0 0 0 -0.31,0l-0.9,0.52c-0.06,0.04 -0.07,0.11 0,0.17z" fill="#3a2c6d" id="svg_153"/>
        <path class="cls-25" d="m114.54,439l1.3,0.74a0.32,0.32 0 0 0 0.3,0l0.91,-0.52c0.09,-0.05 0.1,-0.13 0,-0.18l-1.3,-0.75a0.32,0.32 0 0 0 -0.3,0l-0.91,0.52c-0.07,0.08 -0.08,0.19 0,0.19z" fill="#3a2c6d" id="svg_154"/>
        <path class="cls-25" d="m106.13,434.16l1.3,0.75a0.35,0.35 0 0 0 0.3,0l0.91,-0.53c0.09,-0.05 0.1,-0.13 0,-0.17l-1.3,-0.75a0.32,0.32 0 0 0 -0.3,0l-0.91,0.53c-0.07,0.01 -0.08,0.13 0,0.17z" fill="#3a2c6d" id="svg_155"/>
        <path class="cls-25" d="m107.82,435.14l6.33,3.65a0.35,0.35 0 0 0 0.3,0l0.91,-0.53c0.09,-0.05 0.1,-0.13 0,-0.17l-6.33,-3.66a0.32,0.32 0 0 0 -0.3,0l-0.91,0.52c-0.07,0.05 -0.08,0.14 0,0.19z" fill="#3a2c6d" id="svg_156"/>
        <path class="cls-25" d="m119.17,438.67l1,0.55a0.32,0.32 0 0 0 0.3,0l0.91,-0.53c0.09,-0.05 0.1,-0.13 0,-0.17l-0.95,-0.55a0.35,0.35 0 0 0 -0.3,0l-0.91,0.53c-0.12,0.05 -0.13,0.13 -0.05,0.17z" fill="#3a2c6d" id="svg_157"/>
        <path class="cls-25" d="m117.82,437.89l1,0.55a0.34,0.34 0 0 0 0.31,0l0.9,-0.52c0.09,-0.05 0.1,-0.13 0,-0.18l-1,-0.55a0.32,0.32 0 0 0 -0.3,0l-0.91,0.52c-0.07,0.06 -0.08,0.14 0,0.18z" fill="#3a2c6d" id="svg_158"/>
        <path class="cls-25" d="m116.48,437.12l1,0.55a0.32,0.32 0 0 0 0.3,0l0.91,-0.52c0.09,-0.05 0.1,-0.13 0,-0.17l-1,-0.55a0.32,0.32 0 0 0 -0.3,0l-0.91,0.52c-0.07,0.05 -0.08,0.12 0,0.17z" fill="#3a2c6d" id="svg_159"/>
        <path class="cls-25" d="m115.13,436.34l1,0.55a0.32,0.32 0 0 0 0.3,0l0.91,-0.53c0.09,-0.05 0.1,-0.13 0,-0.17l-1,-0.55a0.32,0.32 0 0 0 -0.3,0l-0.91,0.53c-0.07,0.05 -0.08,0.13 0,0.17z" fill="#3a2c6d" id="svg_160"/>
        <path class="cls-25" d="m113.78,435.56l1,0.55a0.32,0.32 0 0 0 0.3,0l0.91,-0.52c0.09,-0.06 0.1,-0.13 0,-0.18l-1,-0.55a0.37,0.37 0 0 0 -0.31,0l-0.91,0.53c-0.05,0.05 -0.06,0.13 0.01,0.17z" fill="#3a2c6d" id="svg_161"/>
        <path class="cls-25" d="m112.44,434.79l1,0.55a0.32,0.32 0 0 0 0.3,0l0.91,-0.52c0.09,-0.05 0.1,-0.13 0,-0.18l-1,-0.55a0.35,0.35 0 0 0 -0.3,0l-0.91,0.52c-0.07,0.05 -0.08,0.13 0,0.18z" fill="#3a2c6d" id="svg_162"/>
        <path class="cls-25" d="m111.09,434l1,0.55a0.37,0.37 0 0 0 0.31,0l0.9,-0.53c0.09,0 0.1,-0.13 0,-0.17l-1,-0.55a0.32,0.32 0 0 0 -0.3,0l-0.91,0.52c-0.09,0.07 -0.09,0.18 0,0.18z" fill="#3a2c6d" id="svg_163"/>
        <path class="cls-25" d="m109.75,433.23l1,0.55a0.32,0.32 0 0 0 0.3,0l0.91,-0.53c0.09,-0.05 0.1,-0.13 0,-0.17l-1,-0.55a0.35,0.35 0 0 0 -0.3,0l-0.91,0.53c-0.07,0.05 -0.08,0.13 0,0.17z" fill="#3a2c6d" id="svg_164"/>
        <path class="cls-25" d="m108.4,432.45l0.95,0.55a0.32,0.32 0 0 0 0.3,0l0.91,-0.52c0.09,-0.05 0.1,-0.13 0,-0.18l-1,-0.55a0.32,0.32 0 0 0 -0.3,0l-0.91,0.52c-0.02,0.06 -0.03,0.14 0.05,0.18z" fill="#3a2c6d" id="svg_165"/>
        <path class="cls-25" d="m107.05,431.68l1,0.55a0.34,0.34 0 0 0 0.31,0l0.91,-0.52c0.09,-0.05 0.1,-0.13 0,-0.17l-0.95,-0.55a0.34,0.34 0 0 0 -0.31,0l-0.91,0.52c-0.1,0.04 -0.1,0.12 -0.05,0.17z" fill="#3a2c6d" id="svg_166"/>
        <path class="cls-25" d="m105.71,430.9l1,0.55a0.32,0.32 0 0 0 0.3,0l0.91,-0.53c0.09,-0.05 0.1,-0.13 0,-0.17l-1,-0.55a0.32,0.32 0 0 0 -0.3,0l-0.91,0.53c-0.07,0.05 -0.08,0.13 0,0.17z" fill="#3a2c6d" id="svg_167"/>
        <path class="cls-25" d="m104.36,430.12l1,0.55a0.34,0.34 0 0 0 0.31,0l0.9,-0.52c0.09,-0.06 0.1,-0.13 0,-0.18l-1,-0.55a0.35,0.35 0 0 0 -0.3,0l-0.91,0.53c-0.07,0.05 -0.08,0.13 0,0.17z" fill="#3a2c6d" id="svg_168"/>
        <path class="cls-25" d="m120.51,439.45l2,1.14a0.35,0.35 0 0 0 0.3,0l0.91,-0.52c0.09,-0.05 0.1,-0.13 0,-0.18l-2,-1.13a0.34,0.34 0 0 0 -0.31,0l-0.9,0.52c-0.06,0.05 -0.07,0.12 0,0.17z" fill="#3a2c6d" id="svg_169"/>
        <path class="cls-25" d="m118.53,439.81l1,0.55a0.32,0.32 0 0 0 0.3,0l0.91,-0.53c0.09,-0.05 0.1,-0.13 0,-0.17l-0.95,-0.55a0.35,0.35 0 0 0 -0.3,0l-0.91,0.53c-0.12,0.05 -0.13,0.13 -0.05,0.17z" fill="#3a2c6d" id="svg_170"/>
        <path class="cls-25" d="m117.18,439l1,0.55a0.32,0.32 0 0 0 0.3,0l0.91,-0.52c0.09,-0.05 0.1,-0.13 0,-0.18l-1,-0.55a0.34,0.34 0 0 0 -0.31,0l-0.9,0.52c-0.06,0.09 -0.07,0.18 0,0.18z" fill="#3a2c6d" id="svg_171"/>
        <path class="cls-25" d="m115.84,438.26l1,0.55a0.32,0.32 0 0 0 0.3,0l0.91,-0.52c0.09,0 0.1,-0.13 0,-0.17l-1,-0.55a0.32,0.32 0 0 0 -0.3,0l-0.91,0.52c-0.07,0.04 -0.08,0.12 0,0.17z" fill="#3a2c6d" id="svg_172"/>
        <path class="cls-25" d="m114.49,437.48l1,0.55a0.34,0.34 0 0 0 0.31,0l0.91,-0.53c0.08,-0.05 0.09,-0.13 0,-0.17l-1,-0.55a0.34,0.34 0 0 0 -0.31,0l-0.91,0.53c-0.07,0.05 -0.08,0.13 0,0.17z" fill="#3a2c6d" id="svg_173"/>
        <path class="cls-25" d="m113.15,436.7l0.95,0.55a0.32,0.32 0 0 0 0.3,0l0.91,-0.52c0.09,-0.06 0.1,-0.13 0,-0.18l-1,-0.55a0.35,0.35 0 0 0 -0.3,0l-0.91,0.53c-0.02,0.05 -0.03,0.13 0.05,0.17z" fill="#3a2c6d" id="svg_174"/>
        <path class="cls-25" d="m111.8,435.93l1,0.55a0.34,0.34 0 0 0 0.31,0l0.9,-0.52c0.09,-0.05 0.1,-0.13 0,-0.18l-1,-0.55a0.36,0.36 0 0 0 -0.3,0l-0.91,0.52c-0.07,0.05 -0.08,0.13 0,0.18z" fill="#3a2c6d" id="svg_175"/>
        <path class="cls-25" d="m110.45,435.15l1,0.55a0.35,0.35 0 0 0 0.3,0l0.91,-0.53c0.09,-0.05 0.1,-0.13 0,-0.17l-1,-0.55a0.34,0.34 0 0 0 -0.31,0l-0.9,0.52c-0.06,0.03 -0.07,0.13 0,0.18z" fill="#3a2c6d" id="svg_176"/>
        <path class="cls-25" d="m109.11,434.37l1,0.55a0.32,0.32 0 0 0 0.3,0l0.91,-0.52c0.09,-0.06 0.1,-0.13 0,-0.18l-1,-0.55a0.35,0.35 0 0 0 -0.3,0l-0.91,0.53c-0.11,0.05 -0.11,0.13 0,0.17z" fill="#3a2c6d" id="svg_177"/>
        <path class="cls-25" d="m107.76,433.6l0.95,0.55a0.38,0.38 0 0 0 0.31,0l0.91,-0.52c0.09,-0.05 0.1,-0.13 0,-0.18l-1,-0.55a0.34,0.34 0 0 0 -0.31,0l-0.91,0.52c-0.01,0.05 -0.02,0.13 0.05,0.18z" fill="#3a2c6d" id="svg_178"/>
        <path class="cls-25" d="m106.42,432.82l1,0.55a0.35,0.35 0 0 0 0.3,0l0.91,-0.53c0.09,-0.05 0.1,-0.13 0,-0.17l-0.95,-0.55a0.32,0.32 0 0 0 -0.3,0l-0.91,0.52c-0.12,0.06 -0.13,0.13 -0.05,0.18z" fill="#3a2c6d" id="svg_179"/>
        <path class="cls-25" d="m105.07,432l1,0.55a0.34,0.34 0 0 0 0.31,0l0.9,-0.53c0.09,-0.05 0.1,-0.13 0,-0.17l-1,-0.55a0.35,0.35 0 0 0 -0.3,0l-0.91,0.53c-0.07,0.09 -0.07,0.17 0,0.17z" fill="#3a2c6d" id="svg_180"/>
        <path class="cls-25" d="m102.06,430.3l2.62,1.51a0.32,0.32 0 0 0 0.3,0l0.91,-0.52c0.09,0 0.1,-0.13 0,-0.18l-2.62,-1.51a0.35,0.35 0 0 0 -0.3,0l-0.91,0.53c-0.06,0.05 -0.06,0.13 0,0.17z" fill="#3a2c6d" id="svg_181"/>
        <path stroke="null" class="cls-25" d="m119.88,440.59l1.29,0.75a0.37,0.37 0 0 0 0.31,0l0.9,-0.53c0.09,-0.05 0.1,-0.13 0,-0.17l-1.3,-0.75a0.32,0.32 0 0 0 -0.3,0l-0.91,0.52c-0.06,0.06 -0.07,0.13 0.01,0.18z" fill="#3a2c6d" id="svg_182"/>
       </g>
       <g id="_Группа_6" data-name="&lt;Группа&gt;">
        <g id="_Группа_7" data-name="&lt;Группа&gt;">
         <g id="_Группа_8" data-name="&lt;Группа&gt;">
          <path id="_Контур_8" data-name="&lt;Контур&gt;" class="cls-22" d="m129.74,437.91l0,0l-21.6,-12.47l0,-17l0.17,-0.38l0.18,-0.09l0,0a1.52,1.52 0 0 1 1.49,0l19.76,11.42a1.48,1.48 0 0 1 0.75,1.29l0,15.93c-0.14,0.84 -0.29,1.04 -0.75,1.3z" fill="#e5e5e5"/>
          <path id="_Контур_9" data-name="&lt;Контур&gt;" class="cls-22" d="m127.76,421.45l-19.62,-12.45l0,-0.57l0.17,-0.38l0.18,-0.09a1.52,1.52 0 0 1 1.49,0l19.76,11.42a1.44,1.44 0 0 1 0.57,0.58l-2.55,1.49z" fill="#e5e5e5"/>
          <path id="_Контур_10" data-name="&lt;Контур&gt;" class="cls-26" d="m108.64,408.07l20.74,12a0.71,0.71 0 0 1 0.36,0.62l0,17.24l-21.6,-12.47l0,-17.1a0.33,0.33 0 0 1 0.5,-0.29z" fill="#dceeff"/>
          <path id="_Контур_11" data-name="&lt;Контур&gt;" class="cls-23" d="m108.64,408.07l20.74,12a0.71,0.71 0 0 1 0.36,0.62l0,17.24l-21.6,-12.47l0,-17.1a0.33,0.33 0 0 1 0.5,-0.29z" fill="#f4f4f4"/>
          <polygon id="_Контур_12" data-name="&lt;Контур&gt;" class="cls-27" points="129.74 437.91 129.74 437.3 108.14 424.82 108.14 425.44 129.74 437.91" fill="#dbdbdb"/>
         </g>
         <polygon id="_Контур_13" data-name="&lt;Контур&gt;" class="cls-28" points="108.7 424.54 108.7 408.96 108.97 409.11 108.97 424.4 108.7 424.54" fill="#1e3779"/>
         <polygon id="_Контур_14" data-name="&lt;Контур&gt;" class="cls-25" points="108.97 409.11 108.97 424.4 129.05 435.97 129.05 420.71 108.97 409.11" fill="#414656"/>
         <polygon id="_Контур_15" data-name="&lt;Контур&gt;" class="cls-29" points="108.7 424.54 129.05 436.28 129.05 435.97 108.97 424.4 108.7 424.54" fill="#031f60"/>
        </g>
       </g>
      </g>
     </g>
     <path id="_Контур_16" data-name="&lt;Контур&gt;" class="cls-23" d="m85.44,405.37c-0.51,1.28 0.8,2.84 4.28,3.94s3.8,-0.31 3.8,-0.31a69.23,69.23 0 0 1 6.77,3.48c2.09,1.47 3,5.69 3.29,12.83c0.33,8.26 0.36,20.52 0.08,22.63c0,0 -3.9,3.9 -8.9,3.49s-13.41,-4.84 -15.45,-8.25c0,-7.25 0.9,-8.43 -0.27,-12.6c-2.69,-9.55 -4.1,-13.46 -2.8,-19.81c1.08,-5.23 2.59,-5.88 4.65,-5.83a42.54,42.54 0 0 1 4.55,0.43z" fill="#f4f4f4"/>
     <path id="_Контур_17" data-name="&lt;Контур&gt;" class="cls-20" d="m111.81,434.17c-4.11,1 -5.07,-1.55 -5.61,-3.7c-1.3,-5.18 -2,-9.87 -3,-12.81c-1.15,-3.47 -2.35,-4 -4,-4.7c-2,-0.79 -3.69,0.88 -3,5.3a88.08,88.08 0 0 0 3.76,15.08c0.51,1.62 1.66,4.49 3.37,5.87c2.12,1.71 5.3,1.64 10.13,0.44c2,-0.51 4.31,-1.74 8.2,-3.56c1,-0.48 1.86,-0.81 3.86,-1.74a13.55,13.55 0 0 0 5.15,-4c1.05,-1.52 1.19,-2.23 1,-2.58s-0.74,-0.34 -1.3,0.3a11,11 0 0 1 -3,2.73s1.3,-1.33 2,-2.2a10.5,10.5 0 0 0 1.55,-2.54c0.38,-0.89 -0.39,-2.09 -1,-1.46s-0.86,1.28 -1.92,2.55a10.6,10.6 0 0 1 -1.9,1.81a20.47,20.47 0 0 0 1.75,-2.82a4.56,4.56 0 0 0 0.64,-2.54c0,-0.47 -0.68,-1 -1.3,-0.14a16.55,16.55 0 0 1 -2.2,3.37c-0.94,1 -1.73,1.53 -1.76,1.26s0.57,-0.8 0.9,-1.93s0,-2.34 -0.62,-2.47s-0.51,-0.09 -1,1a29.89,29.89 0 0 0 -1.86,3.39a7,7 0 0 1 -1.69,2.9c-1.02,1.02 -3.25,2.21 -7.15,3.19z" fill="#ffcea9"/>
     <path id="_Контур_18" data-name="&lt;Контур&gt;" class="cls-21" d="m97.67,412.25c2.74,-0.4 4.67,0.83 5.88,5s2.06,7.56 2.06,7.56a7.48,7.48 0 0 1 -4.59,3c-3.28,0.79 -4.46,-0.77 -4.46,-0.77s-0.91,-4.36 -1.47,-7.32s-0.81,-6.97 2.58,-7.47z" fill="#ededed"/>
     <path class="cls-25" d="m99,391s4.33,-6.58 -5,-7.92c-6.77,-1 -11.11,3.38 -11.62,8.09c-0.48,4.51 2.3,9.19 4.3,11.05a8.25,8.25 0 0 0 5.85,-0.71a33,33 0 0 0 0.13,-3.69s-3.33,-6.94 6.34,-6.82z" fill="#414656" id="svg_183"/>
    </g>
    <polygon class="cls-17" points="117.79 474.26 117.79 454.5 102.1 463.66 108.14 476.16 117.79 474.26" fill="#c4c7d6" id="svg_184"/>
    <polygon class="cls-3" points="107.51 455.64 113.53 452.14 117.79 454.61 111.55 458.15 107.51 455.64" fill="#d6d8e5" id="svg_185"/>
    <path class="cls-1" d="m31.75,345.63l-26.75,-15.69c-3,-1.78 -2.66,-4.89 0.85,-6.94l13.6,-8c3.51,-2 8.81,-2.27 11.85,-0.49l26.79,15.69c3,1.77 2.65,4.88 -0.85,6.94l-13.6,8c-3.55,2.05 -8.86,2.27 -11.89,0.49z" fill="#d6d8e5" opacity="0.4" id="svg_186"/>
    <path class="cls-3" d="m65,330.16l0,-37.93l-57.22,-6.53l0,38.17l0,0a3.51,3.51 0 0 0 2,3.11l26.82,15.69c3,1.78 8.35,1.56 11.85,-0.5l13.6,-8c2,-1.16 3,-2.65 2.9,-4l0.05,-0.01z" fill="#d6d8e5" id="svg_187"/>
    <path class="cls-30" d="m64.94,296.37l0,-4.14l-4.4,0l-24.42,-14.32c-3,-1.78 -8.35,-1.55 -11.85,0.5l-13.6,8a7.21,7.21 0 0 0 -0.71,0.46l-2.18,-1.17s0,4.37 0,4.52l0,0a3.53,3.53 0 0 0 2,3.1l26.82,15.68c3,1.78 8.35,1.55 11.85,-0.5l13.6,-8c2,-1.19 3,-2.73 2.89,-4.17l0,0.04z" fill="#edf0f9" id="svg_188"/>
    <path class="cls-31" d="m36.6,304.5l-26.78,-15.69c-3,-1.78 -2.66,-4.89 0.85,-6.94l13.6,-8c3.5,-2 8.81,-2.28 11.85,-0.5l26.79,15.69c3,1.78 2.65,4.89 -0.86,6.94l-13.6,8c-3.45,2.05 -8.81,2.28 -11.85,0.5z" fill="#e2e5f2" id="svg_189"/>
    <path class="cls-32" d="m30.57,283.08l0,-1.51l-0.91,0l-0.29,-0.18a6.3,6.3 0 0 0 -5.79,0a2.93,2.93 0 0 0 -0.48,0.34l-0.71,-0.16l0,1.51a2,2 0 0 0 1.19,1.7a6.36,6.36 0 0 0 5.79,0a2.08,2.08 0 0 0 1.2,-1.7z" fill="#56658a" id="svg_190"/>
    <ellipse class="cls-10" cx="26.48" cy="281.57" rx="4.09" ry="2.4" fill="#ab9671" id="svg_191"/>
    <path class="cls-32" d="m40.45,288.77l0,-1.51l-0.91,0l-0.28,-0.18a6.3,6.3 0 0 0 -5.79,0a2.64,2.64 0 0 0 -0.49,0.34l-0.71,-0.16l0,1.51a2.08,2.08 0 0 0 1.2,1.7a6.36,6.36 0 0 0 5.79,0a2,2 0 0 0 1.19,-1.7z" fill="#56658a" id="svg_192"/>
    <ellipse class="cls-10" cx="36.36" cy="287.26" rx="4.09" ry="2.4" fill="#ab9671" id="svg_193"/>
    <path class="cls-32" d="m50.35,294.85l0,-1.51l-0.92,0l-0.28,-0.18a6.3,6.3 0 0 0 -5.79,0a3.23,3.23 0 0 0 -0.49,0.34l-0.71,-0.16l0,1.51a2.06,2.06 0 0 0 1.2,1.7a6.3,6.3 0 0 0 5.79,0a2.06,2.06 0 0 0 1.2,-1.7z" fill="#56658a" id="svg_194"/>
    <ellipse class="cls-10" cx="46.25" cy="293.34" rx="4.09" ry="2.4" fill="#ab9671" id="svg_195"/>
   </g>
  </g>
 </g>
</svg>